{"accessors" : [{"bufferView" : 0, "byteOffset" : 0, "componentType" : 5123, "count" : 10800, "type" : "SCALAR", "max" : [9248], "min" : [0]}, {"bufferView" : 1, "byteOffset" : 0, "componentType" : 5126, "count" : 9249, "type" : "VEC3", "max" : [9.665583610534668, 6.731634140014648, -36.41586685180664], "min" : [-9.665583610534668, -10.624261856079102, -51.537166595458984], "name" : "POSITION"}, {"bufferView" : 1, "byteOffset" : 12, "componentType" : 5126, "count" : 9249, "type" : "VEC3", "max" : [0.9979074001312256, 1.0000044107437134, 1.0000044107437134], "min" : [-0.9979074001312256, -0.9993779063224792, -1.0000044107437134], "name" : "NORMAL"}, {"bufferView" : 1, "byteOffset" : 24, "componentType" : 5126, "count" : 9249, "type" : "VEC2", "max" : [0.9918051958084106, 0.5753086805343628], "min" : [0.3981996476650238, 0.0026259422302246094], "name" : "TEXCOORD_0"}, {"bufferView" : 0, "byteOffset" : 21600, "componentType" : 5123, "count" : 16272, "type" : "SCALAR", "max" : [13778], "min" : [0]}, {"bufferView" : 2, "byteOffset" : 0, "componentType" : 5126, "count" : 13779, "type" : "VEC3", "max" : [27.540563583374023, 27.540555953979492, 29.174312591552734], "min" : [-27.54056167602539, -27.540565490722656, -51.537166595458984], "name" : "POSITION"}, {"bufferView" : 2, "byteOffset" : 12, "componentType" : 5126, "count" : 13779, "type" : "VEC3", "max" : [1.0000044107437134, 1.0000044107437134, 1.0000044107437134], "min" : [-1.0000044107437134, -1.0000044107437134, -1.0000044107437134], "name" : "NORMAL"}, {"bufferView" : 2, "byteOffset" : 24, "componentType" : 5126, "count" : 13779, "type" : "VEC2", "max" : [0.9835517406463623, 0.9849624633789062], "min" : [0.00463290698826313, 0.006333351135253906], "name" : "TEXCOORD_0"}, {"bufferView" : 0, "byteOffset" : 54144, "componentType" : 5123, "count" : 34752, "type" : "SCALAR", "max" : [29448], "min" : [0]}, {"bufferView" : 3, "byteOffset" : 0, "componentType" : 5126, "count" : 29449, "type" : "VEC3", "max" : [3.99540376663208, 10.654397010803223, 28.306591033935547], "min" : [-67.98579406738281, -10.654397964477539, -13.857863426208496], "name" : "POSITION"}, {"bufferView" : 3, "byteOffset" : 12, "componentType" : 5126, "count" : 29449, "type" : "VEC3", "max" : [1.0000044107437134, 1.0000044107437134, 1.0000044107437134], "min" : [-1.0000044107437134, -1.0000044107437134, -1.0000044107437134], "name" : "NORMAL"}, {"bufferView" : 3, "byteOffset" : 24, "componentType" : 5126, "count" : 29449, "type" : "VEC2", "max" : [0.9906807541847229, 0.8267292976379395], "min" : [0.49601104855537415, 0.14047670364379883], "name" : "TEXCOORD_0"}], "asset" : {"generator" : "Aspose.3D 23.2", "version" : "2.0"}, "buffers" : [{"uri" : "data:application/octet-stream;base64,", "byteLength" : 2102032}], "bufferViews" : [{"buffer" : 0, "byteOffset" : 0, "byteLength" : 123648, "target" : 34963}, {"buffer" : 0, "byteOffset" : 123652, "byteLength" : 345600, "byteStride" : 32, "target" : 34962}, {"buffer" : 0, "byteOffset" : 469256, "byteLength" : 520704, "byteStride" : 32, "target" : 34962}, {"buffer" : 0, "byteOffset" : 989964, "byteLength" : 1112064, "byteStride" : 32, "target" : 34962}], "images" : [{"uri" : "data:image/jpeg;base64,"}, {"uri" : "data:image/jpeg;base64,"}], "materials" : [{"name" : "Material__2", "pbrMetallicRoughness" : {"baseColorFactor" : [0.5, 0.5, 0.5, 1], "baseColorTexture" : {"index" : 1, "texCoord" : 0}, "metallicFactor" : 0, "roughnessFactor" : 0}, "normalTexture" : {"index" : 0, "texCoord" : 0, "scale" : 1}, "emissiveFactor" : [0, 0, 0], "alphaMode" : "OPAQUE", "doubleSided" : false}, {"name" : "Material__2", "pbrMetallicRoughness" : {"baseColorFactor" : [0.5, 0.5, 0.5, 1], "baseColorTexture" : {"index" : 1, "texCoord" : 0}, "metallicFactor" : 0, "roughnessFactor" : 0}, "normalTexture" : {"index" : 0, "texCoord" : 0, "scale" : 1}, "emissiveFactor" : [0, 0, 0], "alphaMode" : "OPAQUE", "doubleSided" : false}, {"name" : "Material__2", "pbrMetallicRoughness" : {"baseColorFactor" : [0.5, 0.5, 0.5, 1], "baseColorTexture" : {"index" : 1, "texCoord" : 0}, "metallicFactor" : 0, "roughnessFactor" : 0}, "normalTexture" : {"index" : 0, "texCoord" : 0, "scale" : 1}, "emissiveFactor" : [0, 0, 0], "alphaMode" : "OPAQUE", "doubleSided" : false}], "meshes" : [{"primitives" : [{"attributes" : {"POSITION" : 1, "NORMAL" : 2, "TEXCOORD_0" : 3}, "indices" : 0, "material" : 0, "mode" : 4}]}, {"primitives" : [{"attributes" : {"POSITION" : 5, "NORMAL" : 6, "TEXCOORD_0" : 7}, "indices" : 4, "material" : 1, "mode" : 4}]}, {"primitives" : [{"attributes" : {"POSITION" : 9, "NORMAL" : 10, "TEXCOORD_0" : 11}, "indices" : 8, "material" : 2, "mode" : 4}]}], "nodes" : [{"matrix" : [0.01, 0, 0, 0, 0, 0.01, 0, 0, 0, 0, 0.01, 0, 0, 0, 0, 1], "mesh" : 0, "name" : "sockes"}, {"children" : [0], "matrix" : [1, 0, 0, 0, 0, 0, -1, 0, 0, 1, 0, 0, 0, 0, 0, 1], "name" : "Node #1"}, {"matrix" : [0.01, 0, 0, 0, 0, 0.01, 0, 0, 0, 0, 0.01, 0, 0, 0, 0, 1], "mesh" : 1, "name" : "base008"}, {"children" : [2], "matrix" : [1, 0, 0, 0, 0, 0, -1, 0, 0, 1, 0, 0, 0, 0, 0, 1], "name" : "Node #3"}, {"matrix" : [0.01, 0, 0, 0, 0, 0.01, 0, 0, 0, 0, 0.01, 0, 0, 0, 0, 1], "mesh" : 2, "name" : "Sphere004"}, {"children" : [4], "matrix" : [1, 0, 0, 0, 0, 0, -1, 0, 0, 1, 0, 0, 0.31995195388793946, 0.03346701145172119, 7.080912953558042E-17, 1], "name" : "Node #5"}], "samplers" : [{"magFilter" : 9729, "minFilter" : 9729, "wrapS" : 10497, "wrapT" : 10497}, {"magFilter" : 9729, "minFilter" : 9729, "wrapS" : 10497, "wrapT" : 10497}], "scene" : 0, "scenes" : [{"nodes" : [1, 3, 5]}], "textures" : [{"sampler" : 0, "source" : 0, "name" : ""}, {"sampler" : 1, "source" : 1, "name" : ""}]}