{"accessors" : [{"bufferView" : 0, "byteOffset" : 0, "componentType" : 5123, "count" : 4068, "type" : "SCALAR", "max" : [3490], "min" : [0]}, {"bufferView" : 1, "byteOffset" : 0, "componentType" : 5126, "count" : 3491, "type" : "VEC3", "max" : [28.024038314819336, 28.02403450012207, 29.44178009033203], "min" : [-28.024036407470703, -28.024038314819336, -51.537166595458984], "name" : "POSITION"}, {"bufferView" : 1, "byteOffset" : 12, "componentType" : 5126, "count" : 3491, "type" : "VEC3", "max" : [1.0000044107437134, 1.0000044107437134, 1.0000044107437134], "min" : [-1.0000044107437134, -1.0000044107437134, -1.0000044107437134], "name" : "NORMAL"}, {"bufferView" : 1, "byteOffset" : 24, "componentType" : 5126, "count" : 3491, "type" : "VEC2", "max" : [0.9990000128746033, 0.9990000128746033], "min" : [0.0010000000474974513, 0.31063878536224365], "name" : "TEXCOORD_0"}, {"bufferView" : 0, "byteOffset" : 8136, "componentType" : 5123, "count" : 1824, "type" : "SCALAR", "max" : [1579], "min" : [0]}, {"bufferView" : 2, "byteOffset" : 0, "componentType" : 5126, "count" : 1580, "type" : "VEC3", "max" : [13.890668869018555, 16.111846923828125, -2.559326171875], "min" : [-14.844609260559082, -13.289514541625977, -16.437767028808594], "name" : "POSITION"}, {"bufferView" : 2, "byteOffset" : 12, "componentType" : 5126, "count" : 1580, "type" : "VEC3", "max" : [0.9996935129165649, 0.9998180270195007, 0.9999527931213379], "min" : [-0.9998527765274048, -0.9996742606163025, -0.9992486238479614], "name" : "NORMAL"}, {"bufferView" : 2, "byteOffset" : 24, "componentType" : 5126, "count" : 1580, "type" : "VEC2", "max" : [0.9810647368431091, 0.48638421297073364], "min" : [0.4063018262386322, 0.03409212827682495], "name" : "TEXCOORD_0"}], "asset" : {"generator" : "Aspose.3D 23.2", "version" : "2.0"}, "buffers" : [{"uri" : "data:application/octet-stream;base64,", "byteLength" : 200340}], "bufferViews" : [{"buffer" : 0, "byteOffset" : 0, "byteLength" : 11784, "target" : 34963}, {"buffer" : 0, "byteOffset" : 11788, "byteLength" : 130176, "byteStride" : 32, "target" : 34962}, {"buffer" : 0, "byteOffset" : 141968, "byteLength" : 58368, "byteStride" : 32, "target" : 34962}], "images" : [{"uri" : "data:image/jpeg;base64,"}, {"uri" : "data:image/jpeg;base64,"}], "materials" : [{"name" : "Material__30", "pbrMetallicRoughness" : {"baseColorFactor" : [1, 1, 1, 1], "baseColorTexture" : {"index" : 0, "texCoord" : 0}, "metallicFactor" : 0, "roughnessFactor" : 1, "metallicRoughnessTexture" : {"index" : 1, "texCoord" : 0}}, "emissiveFactor" : [0, 0, 0], "alphaMode" : "OPAQUE", "doubleSided" : false}, {"name" : "Material__30", "pbrMetallicRoughness" : {"baseColorFactor" : [1, 1, 1, 1], "baseColorTexture" : {"index" : 0, "texCoord" : 0}, "metallicFactor" : 0, "roughnessFactor" : 1, "metallicRoughnessTexture" : {"index" : 1, "texCoord" : 0}}, "emissiveFactor" : [0, 0, 0], "alphaMode" : "OPAQUE", "doubleSided" : false}], "meshes" : [{"primitives" : [{"attributes" : {"POSITION" : 1, "NORMAL" : 2, "TEXCOORD_0" : 3}, "indices" : 0, "material" : 0, "mode" : 4}]}, {"primitives" : [{"attributes" : {"POSITION" : 5, "NORMAL" : 6, "TEXCOORD_0" : 7}, "indices" : 4, "material" : 1, "mode" : 4}]}], "nodes" : [{"matrix" : [0.0254, 0, 0, 0, 0, 0.0254, 0, 0, 0, 0, 0.0254, 0, 0, 0, 0, 1], "mesh" : 0, "name" : "base007"}, {"children" : [0], "matrix" : [0.3937007784843445, 0, 0, 0, 0, 0, -0.3937007784843445, 0, 0, 0.3937007784843445, 0, 0, 0, 0, 0, 1], "name" : "Node #1"}, {"matrix" : [0.0254, 0, 0, 0, 0, 0.0254, 0, 0, 0, 0, 0.0254, 0, 0, 0, 0, 1], "mesh" : 1, "name" : "Torus002"}, {"children" : [2], "matrix" : [0.4664945304393769, 0.0810060054063797, -0.01428352762013674, 0, 1.4999409714278045E-08, -0.08225557208061218, -0.4664945304393769, 0, -0.08225564658641817, 0.4594073891639709, -0.08100591599941254, 0, -0.08448841123580932, 0.375946044921875, -0.07845636057853698, 1], "name" : "Node #3"}], "samplers" : [{"magFilter" : 9729, "minFilter" : 9729, "wrapS" : 10497, "wrapT" : 10497}, {"magFilter" : 9729, "minFilter" : 9729, "wrapS" : 10497, "wrapT" : 10497}], "scene" : 0, "scenes" : [{"nodes" : [1, 3]}], "textures" : [{"sampler" : 0, "source" : 0, "name" : ""}, {"sampler" : 1, "source" : 1, "name" : ""}]}