<svg width="30" height="30" viewBox="0 0 30 30" fill="none" xmlns="http://www.w3.org/2000/svg">
<path d="M23.557 23.5569C22.9662 24.1477 22.0085 24.1477 21.4178 23.5569L6.44341 8.58229C5.85269 7.99155 5.85269 7.03378 6.44341 6.44305C7.03413 5.85232 7.99188 5.85232 8.58261 6.44305L23.557 21.4177C24.1477 22.0084 24.1477 22.9662 23.557 23.5569Z" fill="#131432"/>
<path d="M6.44304 23.5569C7.03376 24.1477 7.99151 24.1477 8.58223 23.5569L23.5566 8.58229C24.1473 7.99155 24.1473 7.03378 23.5566 6.44305C22.9659 5.85232 22.0081 5.85232 21.4174 6.44305L6.44304 21.4177C5.85232 22.0084 5.85232 22.9662 6.44304 23.5569Z" fill="#131432"/>
</svg>
