<svg width="140" height="28" viewBox="0 0 140 28" fill="none" xmlns="http://www.w3.org/2000/svg">
<path d="M47.4189 5.03068C46.7971 4.81272 46.1766 4.70374 45.409 4.70374C44.5692 4.70374 44.0932 4.9217 43.8017 5.28454C43.3992 5.82943 43.2895 6.66409 43.2895 7.609V8.84367H48.0768V13.1298H43.2895V27.9484H38.101V13.1298H36.0176V8.84367H38.101V7.31796C38.101 5.13838 38.5035 3.43189 39.4904 2.23311C40.5495 0.925361 42.2678 0.271484 44.8982 0.271484C46.0308 0.271484 47.1274 0.453544 48.2239 0.780482L47.4202 5.0294L47.4189 5.03068ZM51.947 6.17047V1.77668H57.1355V6.17176H51.947V6.17047ZM51.947 27.9253V8.82316H57.1355V27.9266H51.947V27.9253Z" fill="white"/>
<path d="M66.2699 19.2829C66.635 21.8984 68.3533 23.8588 71.0933 23.8588C73.5779 23.8588 74.8577 22.8421 76.1 21.0253L79.4992 23.3139C77.3061 26.473 74.8577 27.9987 70.7282 27.9987C64.9179 27.9987 61.0078 23.9678 61.0078 18.229C61.0078 12.4903 65.2469 8.02344 70.7644 8.02344C76.2819 8.02344 80.0462 11.7646 80.0462 16.8495C80.0462 17.6123 79.9365 18.5201 79.7908 19.2829H66.2699ZM74.748 16.2725C74.6383 13.984 73.031 12.5685 70.9114 12.5685C68.4268 12.5685 67.0749 14.1301 66.5266 16.2725H74.7493H74.748Z" fill="white"/>
<path d="M89.1045 27.9487H83.916V0.708984H89.1045V27.9487Z" fill="white"/>
<path d="M108.286 27.5639L107.847 25.2036C106.495 27.3101 103.901 27.9998 101.927 27.9998C96.8473 27.9998 92.9746 23.4971 92.9746 17.9391C92.9746 12.3812 96.7751 8.02329 102.001 8.02329C103.828 8.02329 106.13 8.67717 107.592 10.3119V0.324219H112.781V27.5639H108.286V27.5639ZM107.592 14.5249C106.276 12.9992 104.741 12.4543 103.134 12.4543C99.8079 12.4543 98.2728 15.3967 98.2728 18.084C98.2728 20.7713 100.099 23.5676 103.06 23.5676C104.705 23.5676 106.458 22.9496 107.592 21.0623V14.5249V14.5249Z" fill="white"/>
<path d="M130.973 6.13574C129.219 6.13574 127.648 7.00758 127.648 8.67817C127.648 10.6398 130.06 11.1847 132.032 11.8745C135.651 13.1091 140 14.7797 140 20.1184C140 25.4571 134.774 27.9996 130.315 27.9996C126.369 27.9996 123.299 26.511 120.521 23.7507L123.993 20.3736C126.076 22.3711 127.684 23.5699 130.352 23.5699C132.398 23.5699 134.407 22.5891 134.407 20.3377C134.407 18.0863 132.069 17.3234 129.474 16.3785C126.149 15.1438 122.422 13.6912 122.422 8.82433C122.422 3.95744 126.551 1.70605 130.79 1.70605C134.08 1.70605 136.674 2.75867 139.268 4.72029L136.272 8.42431C134.846 7.22554 132.946 6.13574 130.973 6.13574V6.13574Z" fill="white"/>
<path d="M21.775 10.9144H21.8227C23.5359 10.9272 25.1459 11.5964 26.3572 12.8004C27.5686 14.0043 28.242 15.6043 28.2536 17.307V17.3916V21.5033V21.5931C28.2303 23.2906 27.5518 24.8868 26.343 26.0881C25.1343 27.2895 23.5282 27.9639 21.8214 27.9869H21.7298H13.9858H13.5407H12.399L10.6123 27.9946C10.5762 27.9946 10.5414 27.9946 10.5052 27.9934H10.4794L10.4511 27.9908H10.4459H10.4394C10.4343 27.9908 10.4291 27.9908 10.4252 27.9908H10.424L10.3517 27.9857C10.3427 27.9857 10.3337 27.9844 10.3246 27.9831C10.295 27.9792 10.2653 27.9767 10.2343 27.9728H10.2253L10.2163 27.9716C10.2072 27.9716 10.1995 27.969 10.1879 27.9677H10.184H10.1789C10.1402 27.9626 10.1079 27.9587 10.0795 27.9523H10.0756L10.0718 27.951C10.0344 27.9446 9.99567 27.9369 9.94407 27.9254C9.90795 27.9177 9.87182 27.9087 9.83441 27.8998C9.7841 27.8869 9.73121 27.8715 9.67445 27.8549C9.63833 27.8433 9.6035 27.8318 9.56866 27.819C9.53641 27.8074 9.50416 27.7959 9.47449 27.7844C9.37645 27.7459 9.28357 27.7036 9.19713 27.66C9.16617 27.6446 9.13521 27.6279 9.10554 27.6113H9.10296L9.10038 27.6087C9.07458 27.5946 9.05007 27.5805 9.02685 27.5664L9.02169 27.5626L9.01137 27.5574L9.00105 27.551L8.98299 27.5395L8.96106 27.5267C8.93655 27.5113 8.91204 27.4959 8.88624 27.4779C8.84882 27.4536 8.81399 27.4279 8.77916 27.4023C8.75078 27.3818 8.72369 27.3626 8.6966 27.3408C8.68499 27.3318 8.67338 27.3215 8.66177 27.3126L8.63597 27.292C8.60372 27.2651 8.57276 27.2382 8.5418 27.21L8.53922 27.2074L8.53664 27.2049C8.52889 27.1984 8.52244 27.192 8.5147 27.1856L8.49793 27.1702C8.49019 27.1625 8.48116 27.1549 8.47084 27.1446C8.44375 27.119 8.41666 27.092 8.39086 27.0651L8.38828 27.0625L8.3857 27.06C8.3599 27.0343 8.33539 27.0087 8.31346 26.9856C8.27992 26.9484 8.24767 26.9113 8.21413 26.8715C8.1922 26.8459 8.17155 26.8189 8.14833 26.7895L8.14059 26.7792H8.1393C8.11995 26.7523 8.1006 26.7266 8.08125 26.6997C8.07867 26.6946 8.0748 26.6894 8.06964 26.683C8.04513 26.6484 8.02191 26.6138 7.9974 26.5766C7.98579 26.5587 7.97418 26.5407 7.96257 26.5228V26.4907L7.91613 26.4446C7.90065 26.4176 7.88517 26.3894 7.8684 26.3587C7.84002 26.3074 7.81679 26.2612 7.79615 26.2163C7.76648 26.1535 7.7381 26.0856 7.70843 26.0086C7.69424 25.9727 7.68134 25.9368 7.66973 25.9035C7.65425 25.8548 7.63877 25.8061 7.62458 25.7561C7.61555 25.7227 7.60394 25.6843 7.59491 25.642L7.59104 25.6279C7.58459 25.6035 7.57943 25.5791 7.57298 25.5509C7.56137 25.4996 7.55234 25.4509 7.5446 25.3945V25.3881L7.54202 25.3791C7.53815 25.3573 7.53557 25.3343 7.53299 25.3125V25.3073V25.3035C7.53041 25.2868 7.52783 25.2689 7.52654 25.2445C7.52267 25.2086 7.5188 25.1714 7.51622 25.1291C7.51493 25.1112 7.51364 25.0919 7.51364 25.074V25.0689V25.0637C7.51235 25.0471 7.51106 25.0291 7.51106 25.0124V25.006V24.9971C7.51106 24.9689 7.50977 24.9394 7.50977 24.9112C7.50977 23.2111 8.90172 21.8277 10.6123 21.8277H19.6632C20.9816 21.8277 22.0549 20.7597 22.0549 19.4494C22.0549 18.8134 21.806 18.216 21.3544 17.7685C20.9029 17.3198 20.3018 17.0723 19.6632 17.0723H18.6479C16.9399 17.0723 15.5493 15.6915 15.5493 13.9927C15.5493 12.2939 16.8574 10.9785 18.5293 10.9156C18.5693 10.9144 18.608 10.9131 18.6492 10.9131H21.7776L21.775 10.9144Z" fill="white"/>
<path d="M0.00129004 17.1318C1.5803 18.8486 3.84947 19.8666 6.19476 19.882H6.19734V24.9078C6.19734 26.6053 4.80797 27.9875 3.09867 27.9875C1.66286 27.9875 0.424422 27.0208 0.0877225 25.6348C0.033541 25.4156 0 25.1784 0 24.6783V17.1318H0.00129004Z" fill="white"/>
<path d="M21.7791 3.07963C21.7791 3.90274 21.4566 4.67586 20.8709 5.25665C20.2865 5.83873 19.5086 6.15926 18.6804 6.15926H8.59102C7.29969 6.15926 6.23154 7.19777 6.20058 8.47859V8.49398C6.20058 8.50936 6.20058 8.52347 6.20058 8.53757C6.20058 8.56193 6.20058 8.58501 6.20058 8.6068V9.52223C6.20058 9.53377 6.20058 9.54275 6.20058 9.54916V17.0674C4.57643 16.9995 3.05805 16.3366 1.90089 15.1892C0.688253 13.984 0.0148535 12.3826 0.00195312 10.68V10.5941V6.48748V6.39517C0.0264638 4.69637 0.705023 3.10014 1.91379 1.90009C3.12126 0.69875 4.72736 0.0243601 6.43924 0C6.46633 0 6.49342 0 6.51922 0H18.6804C20.3897 0 21.7791 1.38211 21.7791 3.07963Z" fill="white"/>
<path d="M20.8709 5.25665C20.2865 5.83873 19.5086 6.15926 18.6804 6.15926H8.59102C7.29969 6.15926 6.23154 7.19777 6.20058 8.47859V8.49398C6.20058 8.50936 6.20058 8.52347 6.20058 8.53757C6.20058 8.56193 6.20058 8.58501 6.20058 8.6068V9.52223C6.20058 9.53377 6.20058 9.54275 6.20058 9.54916V17.0674C4.57643 16.9995 3.05805 16.3366 1.90089 15.1892C0.688253 13.984 0.0148535 12.3826 0.00195312 10.68V10.5941V6.48748V6.39517C0.0264638 4.69637 0.705023 3.10014 1.91379 1.90009C3.12126 0.69875 4.72736 0.0243601 6.43924 0C6.46633 0 6.49342 0 6.51922 0H18.6804C20.3897 0 21.7791 1.38211 21.7791 3.07963C21.7791 3.90274 21.4566 4.67586 20.8709 5.25665Z" fill="white"/>
<path d="M10.8741 10.9043C10.9141 10.9043 10.954 10.9043 10.9953 10.9069C12.6646 10.9697 13.9727 12.321 13.9727 13.9839C13.9727 15.6468 12.5834 17.0636 10.8741 17.0636C9.16476 17.0636 7.77539 15.6827 7.77539 13.9839C7.77539 12.2851 9.08349 10.9697 10.7554 10.9069C10.7954 10.9056 10.8341 10.9043 10.8741 10.9043V10.9043Z" fill="white"/>
</svg>
