<svg width="140" height="28" viewBox="0 0 140 28" fill="none" xmlns="http://www.w3.org/2000/svg">
<g style="mix-blend-mode:difference">
<path d="M47.4189 5.03104C46.7971 4.81309 46.1766 4.70411 45.409 4.70411C44.5692 4.70411 44.0932 4.92206 43.8017 5.2849C43.3992 5.8298 43.2895 6.66445 43.2895 7.60937V8.84404H48.0768V13.1301H43.2895V27.9488H38.101V13.1301H36.0176V8.84404H38.101V7.31833C38.101 5.13874 38.5035 3.43225 39.4904 2.23348C40.5495 0.925727 42.2678 0.271851 44.8982 0.271851C46.0308 0.271851 47.1274 0.45391 48.2239 0.780848L47.4202 5.02976L47.4189 5.03104ZM51.947 6.17084V1.77705H57.1355V6.17212H51.947V6.17084ZM51.947 27.9257V8.82353H57.1355V27.927H51.947V27.9257Z" fill="black"/>
<path d="M66.2699 19.283C66.635 21.8985 68.3533 23.8588 71.0933 23.8588C73.5779 23.8588 74.8577 22.8421 76.1 21.0253L79.4992 23.3139C77.3061 26.473 74.8577 27.9987 70.7282 27.9987C64.9179 27.9987 61.0078 23.9678 61.0078 18.2291C61.0078 12.4903 65.2469 8.02347 70.7644 8.02347C76.2819 8.02347 80.0462 11.7647 80.0462 16.8495C80.0462 17.6124 79.9365 18.5201 79.7908 19.283H66.2699ZM74.748 16.2726C74.6383 13.984 73.031 12.5685 70.9114 12.5685C68.4268 12.5685 67.0749 14.1302 66.5266 16.2726H74.7493H74.748Z" fill="black"/>
<path d="M89.1045 27.9488H83.916V0.709045H89.1045V27.9488Z" fill="black"/>
<path d="M108.286 27.5641L107.847 25.2038C106.495 27.3103 103.901 28.0001 101.927 28.0001C96.8473 28.0001 92.9746 23.4973 92.9746 17.9393C92.9746 12.3814 96.7751 8.0235 102.001 8.0235C103.828 8.0235 106.13 8.67738 107.592 10.3121V0.324432H112.781V27.5641H108.286ZM107.592 14.5251C106.276 12.9994 104.741 12.4545 103.134 12.4545C99.8079 12.4545 98.2728 15.3969 98.2728 18.0842C98.2728 20.7715 100.099 23.5678 103.06 23.5678C104.705 23.5678 106.458 22.9498 107.592 21.0626V14.5251Z" fill="black"/>
<path d="M130.973 6.1362C129.219 6.1362 127.648 7.00804 127.648 8.67863C127.648 10.6403 130.06 11.1852 132.032 11.8749C135.651 13.1096 140 14.7802 140 20.1189C140 25.4576 134.774 28 130.315 28C126.369 28 123.299 26.5115 120.521 23.7511L123.993 20.374C126.076 22.3716 127.684 23.5703 130.352 23.5703C132.398 23.5703 134.407 22.5895 134.407 20.3381C134.407 18.0868 132.069 17.3239 129.474 16.379C126.149 15.1443 122.422 13.6917 122.422 8.82479C122.422 3.9579 126.551 1.70651 130.79 1.70651C134.08 1.70651 136.674 2.75912 139.268 4.72075L136.272 8.42477C134.846 7.226 132.946 6.1362 130.973 6.1362Z" fill="black"/>
</g>
<path d="M21.775 10.9146H21.8227C23.5359 10.9275 25.1459 11.5967 26.3572 12.8006C27.5686 14.0045 28.242 15.6046 28.2536 17.3072V17.3919V21.5036V21.5933C28.2303 23.2908 27.5518 24.8871 26.343 26.0884C25.1343 27.2897 23.5282 27.9641 21.8214 27.9872H21.7298H13.9858H13.5407H12.399L10.6123 27.9949C10.5762 27.9949 10.5414 27.9949 10.5052 27.9936H10.4794L10.4511 27.9911H10.4459H10.4394C10.4343 27.9911 10.4291 27.9911 10.4252 27.9911H10.424L10.3517 27.9859C10.3427 27.9859 10.3337 27.9846 10.3246 27.9834C10.295 27.9795 10.2653 27.977 10.2343 27.9731H10.2253L10.2163 27.9718C10.2072 27.9718 10.1995 27.9693 10.1879 27.968H10.184H10.1789C10.1402 27.9629 10.1079 27.959 10.0795 27.9526H10.0756L10.0718 27.9513C10.0344 27.9449 9.99567 27.9372 9.94407 27.9257C9.90795 27.918 9.87182 27.909 9.83441 27.9C9.7841 27.8872 9.73121 27.8718 9.67445 27.8552C9.63833 27.8436 9.6035 27.8321 9.56866 27.8193C9.53641 27.8077 9.50416 27.7962 9.47449 27.7846C9.37645 27.7462 9.28357 27.7039 9.19713 27.6603C9.16617 27.6449 9.13521 27.6282 9.10554 27.6116H9.10296L9.10038 27.609C9.07458 27.5949 9.05007 27.5808 9.02685 27.5667L9.02169 27.5628L9.01137 27.5577L9.00105 27.5513L8.98299 27.5398L8.96106 27.5269C8.93655 27.5116 8.91204 27.4962 8.88624 27.4782C8.84882 27.4539 8.81399 27.4282 8.77916 27.4026C8.75078 27.3821 8.72369 27.3628 8.6966 27.341C8.68499 27.3321 8.67338 27.3218 8.66177 27.3128L8.63597 27.2923C8.60372 27.2654 8.57276 27.2385 8.5418 27.2103L8.53922 27.2077L8.53664 27.2051C8.52889 27.1987 8.52244 27.1923 8.5147 27.1859L8.49793 27.1705C8.49019 27.1628 8.48116 27.1551 8.47084 27.1449C8.44375 27.1192 8.41666 27.0923 8.39086 27.0654L8.38828 27.0628L8.3857 27.0603C8.3599 27.0346 8.33539 27.009 8.31346 26.9859C8.27992 26.9487 8.24767 26.9115 8.21413 26.8718C8.1922 26.8461 8.17155 26.8192 8.14833 26.7897L8.14059 26.7795H8.1393C8.11995 26.7525 8.1006 26.7269 8.08125 26.7C8.07867 26.6948 8.0748 26.6897 8.06964 26.6833C8.04513 26.6487 8.02191 26.6141 7.9974 26.5769C7.98579 26.5589 7.97418 26.541 7.96257 26.523V26.491L7.91613 26.4448C7.90065 26.4179 7.88517 26.3897 7.8684 26.3589C7.84002 26.3077 7.81679 26.2615 7.79615 26.2166C7.76648 26.1538 7.7381 26.0858 7.70843 26.0089C7.69424 25.973 7.68134 25.9371 7.66973 25.9038C7.65425 25.8551 7.63877 25.8063 7.62458 25.7563C7.61555 25.723 7.60394 25.6845 7.59491 25.6422L7.59104 25.6281C7.58459 25.6038 7.57943 25.5794 7.57298 25.5512C7.56137 25.4999 7.55234 25.4512 7.5446 25.3948V25.3884L7.54202 25.3794C7.53815 25.3576 7.53557 25.3345 7.53299 25.3127V25.3076V25.3038C7.53041 25.2871 7.52783 25.2691 7.52654 25.2448C7.52267 25.2089 7.5188 25.1717 7.51622 25.1294C7.51493 25.1114 7.51364 25.0922 7.51364 25.0743V25.0691V25.064C7.51235 25.0473 7.51106 25.0294 7.51106 25.0127V25.0063V24.9973C7.51106 24.9691 7.50977 24.9396 7.50977 24.9114C7.50977 23.2114 8.90172 21.828 10.6123 21.828H19.6632C20.9816 21.828 22.0549 20.76 22.0549 19.4496C22.0549 18.8137 21.806 18.2163 21.3544 17.7688C20.9029 17.3201 20.3018 17.0726 19.6632 17.0726H18.6479C16.9399 17.0726 15.5493 15.6918 15.5493 13.993C15.5493 12.2942 16.8574 10.9787 18.5293 10.9159C18.5693 10.9146 18.608 10.9134 18.6492 10.9134H21.7776L21.775 10.9146Z" fill="#4A3AFF"/>
<path d="M0.00129004 17.1316C1.5803 18.8483 3.84947 19.8663 6.19476 19.8817H6.19734V24.9076C6.19734 26.6051 4.80797 27.9872 3.09867 27.9872C1.66286 27.9872 0.424422 27.0205 0.0877225 25.6345C0.033541 25.4153 0 25.1781 0 24.6781V17.1316H0.00129004Z" fill="#07D2FF"/>
<path d="M21.7791 3.07966C21.7791 3.90277 21.4566 4.67589 20.8709 5.25668C20.2865 5.83876 19.5086 6.15929 18.6804 6.15929H8.59102C7.29969 6.15929 6.23154 7.1978 6.20058 8.47862V8.49401C6.20058 8.50939 6.20058 8.5235 6.20058 8.5376C6.20058 8.56196 6.20058 8.58504 6.20058 8.60684V9.52226C6.20058 9.5338 6.20058 9.54278 6.20058 9.54919V17.0675C4.57643 16.9995 3.05805 16.3367 1.90089 15.1892C0.688253 13.984 0.0148535 12.3826 0.00195312 10.68V10.5941V6.48751V6.3952C0.0264638 4.6964 0.705023 3.10017 1.91379 1.90012C3.12126 0.69878 4.72736 0.0243906 6.43924 3.05176e-05C6.46633 3.05176e-05 6.49342 3.05176e-05 6.51922 3.05176e-05H18.6804C20.3897 3.05176e-05 21.7791 1.38215 21.7791 3.07966Z" fill="#4A3AFF"/>
<path d="M20.8709 5.25668C20.2865 5.83876 19.5086 6.15929 18.6804 6.15929H8.59102C7.29969 6.15929 6.23154 7.1978 6.20058 8.47862V8.49401C6.20058 8.50939 6.20058 8.5235 6.20058 8.5376C6.20058 8.56196 6.20058 8.58504 6.20058 8.60684V9.52226C6.20058 9.5338 6.20058 9.54278 6.20058 9.54919V17.0675C4.57643 16.9995 3.05805 16.3367 1.90089 15.1892C0.688253 13.984 0.0148535 12.3826 0.00195312 10.68V10.5941V6.48751V6.3952C0.0264638 4.6964 0.705023 3.10017 1.91379 1.90012C3.12126 0.69878 4.72736 0.0243906 6.43924 3.05176e-05C6.46633 3.05176e-05 6.49342 3.05176e-05 6.51922 3.05176e-05H18.6804C20.3897 3.05176e-05 21.7791 1.38215 21.7791 3.07966C21.7791 3.90277 21.4566 4.67589 20.8709 5.25668Z" fill="#4A3AFF"/>
<path d="M10.8741 10.9044C10.9141 10.9044 10.954 10.9044 10.9953 10.907C12.6646 10.9698 13.9727 12.3211 13.9727 13.984C13.9727 15.6469 12.5834 17.0636 10.8741 17.0636C9.16476 17.0636 7.77539 15.6828 7.77539 13.984C7.77539 12.2852 9.08349 10.9698 10.7554 10.907C10.7954 10.9057 10.8341 10.9044 10.8741 10.9044Z" fill="#07D2FF"/>
</svg>
