<svg width="30" height="30" viewBox="0 0 30 30" fill="none" xmlns="http://www.w3.org/2000/svg">
<path d="M4 7.5C4 6.67157 4.67157 6 5.5 6H24.5C25.3284 6 26 6.67157 26 7.5C26 8.32843 25.3284 9 24.5 9H5.5C4.67157 9 4 8.32843 4 7.5Z" fill="#131432"/>
<path d="M4 15.5C4 14.6716 4.67157 14 5.5 14H24.5C25.3284 14 26 14.6716 26 15.5C26 16.3284 25.3284 17 24.5 17H5.5C4.67157 17 4 16.3284 4 15.5Z" fill="#131432"/>
<path d="M4 23.5C4 22.6716 4.67157 22 5.5 22H24.5C25.3284 22 26 22.6716 26 23.5C26 24.3284 25.3284 25 24.5 25H5.5C4.67157 25 4 24.3284 4 23.5Z" fill="#131432"/>
</svg>
