<svg width="359" height="90" viewBox="0 0 359 90" fill="none" xmlns="http://www.w3.org/2000/svg">
<g clip-path="url(#clip0_337_6174)">
<path d="M204.099 15.7697C200.318 14.3624 196.385 13.2669 192.331 12.5214C188.101 11.7379 183.75 11.3271 179.292 11.3271C174.834 11.3271 170.483 11.7379 166.261 12.5214C162.214 13.2669 158.289 14.3624 154.516 15.7621C155.68 13.2745 157.216 10.9848 159.042 8.9765C159.346 8.657 159.65 8.34511 159.947 8.02561C164.473 3.49937 170.582 0.547797 177.36 0.0761546C177.999 0.0305118 178.645 0.00769043 179.3 0.00769043C179.954 0.00769043 180.578 0.0305118 181.217 0.0761546C187.995 0.54019 194.088 3.47654 198.614 7.98757L198.66 8.02561C198.941 8.30707 199.207 8.58093 199.474 8.87761C199.504 8.90804 199.542 8.94607 199.565 8.98411C201.398 10.9924 202.935 13.2821 204.099 15.7773V15.7697Z" fill="#1C1B2D"/>
<path d="M179.679 47.9326C186.602 47.7348 192.147 42.0827 192.147 35.1222C192.147 28.1616 186.594 22.4867 179.679 22.2889H178.956C172.034 22.4867 166.488 28.1616 166.488 35.1222C166.488 42.0827 172.041 47.7348 178.956 47.9326H179.679V47.9326Z" fill="#175FFF"/>
<path d="M200.947 30.1092C205.177 33.6237 208.532 38.1423 210.646 43.3075C212.267 47.2633 213.164 51.5993 213.164 56.1408C213.164 74.8391 198.011 89.9925 179.313 89.9925C160.614 89.9925 145.461 74.8391 145.461 56.1408C145.461 51.5993 146.359 47.2709 147.979 43.3075C150.094 38.1423 153.448 33.6161 157.678 30.1016C158.203 30.8395 158.614 31.661 158.895 32.5435C159.146 33.3574 159.283 34.217 159.283 35.1071C159.283 35.9971 159.154 36.8111 158.918 37.6022C158.91 37.625 158.903 37.6478 158.895 37.6707L158.918 37.6022C158.918 37.6022 158.903 37.6478 158.895 37.6707C158.363 39.5268 158.081 41.497 158.081 43.5205C158.081 55.2507 167.59 64.7597 179.32 64.7597C191.05 64.7597 200.559 55.2507 200.559 43.5205C200.559 41.497 200.27 39.5268 199.745 37.6707C199.745 37.6478 199.73 37.625 199.723 37.6022L199.745 37.6707C199.745 37.6707 199.73 37.625 199.723 37.6022C199.487 36.8111 199.357 35.9743 199.357 35.1071C199.357 34.2398 199.494 33.3498 199.745 32.5435C200.019 31.661 200.438 30.8395 200.963 30.1016L200.947 30.1092Z" fill="#1C1B2D"/>
<path d="M124.485 89.9999C122.416 89.9999 120.56 89.2392 119.129 87.8091C117.699 86.3789 116.939 84.5304 116.939 82.4537V50.6558C116.939 42.4706 113.721 38.8191 106.494 38.8191C103.056 38.8191 100.081 39.6787 97.3806 41.4512C94.7333 43.1932 92.1773 45.5514 89.7811 48.4574V82.4461C89.7811 84.538 88.9899 86.3942 87.5065 87.8319C86.0155 89.262 84.205 89.9923 82.1283 89.9923C80.0516 89.9923 78.203 89.2316 76.7729 87.8015C75.3427 86.3713 74.582 84.5228 74.582 82.4461V32.6726C74.582 30.5882 75.3047 28.7777 76.7425 27.2943C78.1726 25.8033 80.0363 25.0198 82.1283 25.0198C84.2203 25.0198 86.0688 25.7957 87.537 27.2639C88.8378 28.5647 89.5909 30.1698 89.7506 31.9575C91.6905 30.2839 93.7292 28.8386 95.8287 27.6443C99.5714 25.5219 104.014 24.4417 109.042 24.4417C113.728 24.4417 117.882 25.5827 121.381 27.8268C124.865 30.0709 127.573 33.1594 129.414 37.0162C131.217 40.797 132.138 44.9961 132.138 49.5072V82.4613C132.138 84.5532 131.346 86.4094 129.863 87.8471C128.372 89.2773 126.562 90.0075 124.485 90.0075V89.9999Z" fill="#1C1B2D"/>
<path d="M78.4203 86.1659C77.4161 85.1618 76.9141 83.9218 76.9141 82.4537V32.6726C76.9141 31.2044 77.4161 29.9492 78.4203 28.8994C79.4244 27.8573 80.6644 27.3324 82.1326 27.3324C83.6007 27.3324 84.8559 27.8573 85.9057 28.8994C86.9479 29.9416 87.4728 31.2044 87.4728 32.6726V37.4346C90.4091 34.1864 93.5813 31.5924 96.9893 29.6602C100.39 27.7279 104.414 26.7618 109.054 26.7618C113.307 26.7618 117.004 27.766 120.138 29.7819C123.272 31.7978 125.668 34.5439 127.334 38.0204C129 41.4969 129.829 45.3309 129.829 49.5072V82.4613C129.829 83.9295 129.304 85.1694 128.262 86.1736C127.22 87.1777 125.957 87.6798 124.489 87.6798C123.021 87.6798 121.781 87.1777 120.777 86.1736C119.773 85.1694 119.271 83.9295 119.271 82.4613V50.6635C119.271 41.223 115.011 36.5066 106.506 36.5066C102.634 36.5066 99.1725 37.5107 96.1221 39.5266C93.064 41.5425 90.1809 44.243 87.4804 47.651V82.4613C87.4804 83.9295 86.9555 85.1694 85.9133 86.1736C84.8711 87.1777 83.6083 87.6798 82.1402 87.6798C80.672 87.6798 79.432 87.1777 78.4279 86.1736L78.4203 86.1659Z" fill="#1C1B2D"/>
<path d="M260.12 90.0001C254.194 90.0001 248.641 88.6612 243.605 86.0215C238.531 83.359 234.416 79.4794 231.388 74.4967C228.353 69.5141 226.816 63.6033 226.816 56.9319C226.816 50.2604 228.353 44.3497 231.388 39.367C234.416 34.3843 238.531 30.5047 243.605 27.8422C248.641 25.2025 254.194 23.8636 260.113 23.8636C264.456 23.8636 268.283 24.4342 271.501 25.56C274.635 26.6555 277.586 28.0856 280.272 29.7972C282.501 31.2502 283.664 33.3269 283.664 35.8145C283.664 37.5717 283.01 39.1692 281.717 40.5765C280.393 42.0143 278.743 42.775 276.932 42.775C275.692 42.775 274.46 42.4479 273.266 41.7937C270.884 40.5689 268.8 39.6637 267.111 39.1236C265.529 38.6215 263.483 38.3628 261.026 38.3628C254.963 38.3628 250.376 40.0136 247.013 43.4216C243.636 46.8296 242 51.2493 242 56.9319C242 62.6144 243.643 67.0341 247.013 70.4421C250.383 73.8425 254.963 75.5009 261.033 75.5009C263.49 75.5009 265.537 75.2422 267.119 74.7402C268.815 74.2001 270.9 73.2948 273.319 72.0472C274.467 71.4234 275.7 71.0963 276.932 71.0963C278.735 71.0963 280.386 71.8571 281.717 73.2948C283.01 74.7021 283.664 76.3072 283.664 78.0569C283.664 80.552 282.501 82.6288 280.287 84.0665C277.579 85.7933 274.627 87.2159 271.493 88.3113C268.275 89.4371 264.449 90.0077 260.105 90.0077L260.12 90.0001Z" fill="#1C1B2D"/>
<path d="M244.69 83.9603C239.973 81.488 236.2 77.9278 233.378 73.2875C230.556 68.6471 229.141 63.1928 229.141 56.9246C229.141 50.6563 230.548 45.202 233.378 40.5616C236.2 35.9213 239.973 32.3611 244.69 29.8888C249.406 27.4165 254.556 26.1765 260.124 26.1765C264.225 26.1765 267.762 26.7014 270.744 27.7436C273.718 28.7858 276.487 30.1246 279.043 31.7449C280.588 32.7491 281.364 34.1031 281.364 35.8071C281.364 36.971 280.915 38.0284 280.032 38.9945C279.142 39.9606 278.115 40.4475 276.959 40.4475C276.107 40.4475 275.255 40.2117 274.403 39.7552C271.847 38.4392 269.664 37.4959 267.846 36.9102C266.028 36.332 263.761 36.043 261.06 36.043C254.404 36.043 249.185 37.96 245.397 41.7864C241.609 45.6127 239.715 50.6639 239.715 56.9322C239.715 63.2004 241.609 68.244 245.397 72.078C249.185 75.9044 254.411 77.8213 261.06 77.8213C263.768 77.8213 266.028 77.5323 267.846 76.9541C269.664 76.376 271.847 75.4251 274.403 74.1091C275.255 73.645 276.107 73.4168 276.959 73.4168C278.123 73.4168 279.142 73.9037 280.032 74.8698C280.922 75.8359 281.364 76.9009 281.364 78.0572C281.364 79.7612 280.588 81.1152 279.043 82.1194C276.487 83.7397 273.726 85.0786 270.744 86.1207C267.762 87.1629 264.225 87.6878 260.124 87.6878C254.556 87.6878 249.406 86.4478 244.69 83.9755V83.9603Z" fill="#1C1B2D"/>
<path d="M53.3831 77.8895L33.9697 51.3938L48.9177 37.8455C52.029 35.0233 52.2649 30.2156 49.4426 27.0966C46.6204 23.9853 41.8127 23.7495 38.7014 26.5717L15.2182 47.8565V22.2357C15.2182 18.0365 11.8102 14.6285 7.61103 14.6285C3.4119 14.6285 0.00390625 18.0365 0.00390625 22.2357V82.3701C0.00390625 86.5692 3.4119 89.9772 7.61103 89.9772C11.8102 89.9772 15.2182 86.5692 15.2182 82.3701V68.2817C15.5148 68.0839 15.8039 67.8633 16.0778 67.6198L22.6427 61.6711L41.1204 86.8887C43.6003 90.2739 48.3624 91.0118 51.7552 88.5319C55.1404 86.0519 55.8783 81.2899 53.3983 77.8971L53.3831 77.8895Z" fill="#1C1B2D"/>
<path d="M357.141 77.8895L337.728 51.3938L352.676 37.8455C355.787 35.0233 356.023 30.2156 353.2 27.0966C350.378 23.9853 345.57 23.7495 342.459 26.5717L318.976 47.8565V22.2357C318.976 18.0365 315.568 14.6285 311.369 14.6285C307.17 14.6285 303.762 18.0365 303.762 22.2357V82.3701C303.762 86.5692 307.17 89.9772 311.369 89.9772C315.568 89.9772 318.976 86.5692 318.976 82.3701V68.2817C319.273 68.0839 319.562 67.8633 319.836 67.6198L326.401 61.6711L344.878 86.8887C347.358 90.2739 352.12 91.0118 355.513 88.5319C358.898 86.0519 359.636 81.2899 357.156 77.8971L357.141 77.8895Z" fill="#1C1B2D"/>
</g>
<defs>
<clipPath id="clip0_337_6174">
<rect width="358.615" height="90" fill="white"/>
</clipPath>
</defs>
</svg>
