<svg width="190" height="40" viewBox="0 0 190 40" fill="none" xmlns="http://www.w3.org/2000/svg">
<rect width="40" height="40" rx="6" fill="#4A3AFF" fill-opacity="0.25"/>
<path d="M20 10.1622C23.2041 10.1622 23.5837 10.1744 24.849 10.2321C26.019 10.2855 26.6544 10.481 27.0773 10.6453C27.6374 10.863 28.0371 11.123 28.457 11.5429C28.877 11.9629 29.137 12.3626 29.3547 12.9227C29.519 13.3456 29.7145 13.981 29.7679 15.1509C29.8256 16.4163 29.8378 16.7958 29.8378 19.9999C29.8378 23.2041 29.8256 23.5836 29.7679 24.849C29.7145 26.019 29.519 26.6543 29.3547 27.0772C29.137 27.6373 28.877 28.0371 28.4571 28.457C28.0371 28.8769 27.6374 29.1369 27.0773 29.3546C26.6544 29.519 26.019 29.7144 24.849 29.7678C23.5839 29.8255 23.2044 29.8378 20 29.8378C16.7956 29.8378 16.4162 29.8255 15.151 29.7678C13.981 29.7144 13.3456 29.519 12.9227 29.3546C12.3626 29.1369 11.9629 28.8769 11.543 28.457C11.1231 28.0371 10.863 27.6373 10.6453 27.0772C10.481 26.6543 10.2855 26.019 10.2321 24.849C10.1744 23.5836 10.1622 23.2041 10.1622 19.9999C10.1622 16.7958 10.1744 16.4163 10.2321 15.1509C10.2855 13.981 10.481 13.3456 10.6453 12.9227C10.863 12.3626 11.123 11.9629 11.543 11.543C11.9629 11.123 12.3626 10.863 12.9227 10.6453C13.3456 10.481 13.981 10.2855 15.151 10.2321C16.4163 10.1744 16.7959 10.1622 20 10.1622ZM20 8C16.741 8 16.3323 8.01381 15.0524 8.07221C13.7752 8.13047 12.9028 8.33334 12.1395 8.62996C11.3504 8.93663 10.6812 9.34694 10.0141 10.0141C9.34695 10.6812 8.93663 11.3504 8.63001 12.1395C8.33334 12.9028 8.13047 13.7751 8.07221 15.0524C8.01381 16.3323 8 16.741 8 19.9999C8 23.259 8.01381 23.6676 8.07221 24.9475C8.13047 26.2248 8.33334 27.0971 8.63001 27.8604C8.93663 28.6495 9.34695 29.3187 10.0141 29.9859C10.6812 30.653 11.3504 31.0633 12.1395 31.3699C12.9028 31.6666 13.7752 31.8694 15.0524 31.9277C16.3323 31.9861 16.741 31.9999 20 31.9999C23.259 31.9999 23.6677 31.9861 24.9476 31.9277C26.2248 31.8694 27.0972 31.6666 27.8605 31.3699C28.6496 31.0633 29.3188 30.653 29.9859 29.9859C30.653 29.3187 31.0634 28.6495 31.37 27.8604C31.6667 27.0971 31.8695 26.2248 31.9278 24.9475C31.9862 23.6676 32 23.259 32 19.9999C32 16.741 31.9862 16.3323 31.9278 15.0524C31.8695 13.7751 31.6667 12.9028 31.37 12.1395C31.0634 11.3504 30.653 10.6812 29.9859 10.0141C29.3188 9.34694 28.6496 8.93663 27.8605 8.62996C27.0972 8.33334 26.2248 8.13047 24.9476 8.07221C23.6677 8.01381 23.259 8 20 8Z" fill="white"/>
<path d="M20.0059 13.8438C16.6026 13.8438 13.8438 16.6026 13.8438 20.0059C13.8438 23.4092 16.6026 26.168 20.0059 26.168C23.4092 26.168 26.1681 23.4092 26.1681 20.0059C26.1681 16.6026 23.4092 13.8438 20.0059 13.8438ZM20.0059 24.0059C17.7968 24.0059 16.0059 22.215 16.0059 20.0059C16.0059 17.7967 17.7968 16.0059 20.0059 16.0059C22.2151 16.0059 24.0059 17.7967 24.0059 20.0059C24.0059 22.215 22.2151 24.0059 20.0059 24.0059Z" fill="white"/>
<path d="M27.8507 13.5963C27.8507 14.3915 27.206 15.0363 26.4107 15.0363C25.6154 15.0363 24.9707 14.3915 24.9707 13.5963C24.9707 12.801 25.6154 12.1562 26.4107 12.1562C27.206 12.1562 27.8507 12.801 27.8507 13.5963Z" fill="white"/>
<rect x="50" width="40" height="40" rx="6" fill="#4A3AFF" fill-opacity="0.25"/>
<path fill-rule="evenodd" clip-rule="evenodd" d="M74.8756 12.9578C74.2522 12.8331 73.4104 12.74 72.8809 12.74C71.4473 12.74 71.3541 13.3633 71.3541 14.3607V16.1361H74.9379L74.6255 19.8137H71.3541V31H66.8669V19.8137H64.5605V16.1361H66.8669V13.8613C66.8669 10.7453 68.3313 9 72.0083 9C73.2857 9 74.2207 9.187 75.4358 9.43633L74.8756 12.9578Z" fill="white"/>
<rect x="100" width="40" height="40" rx="6" fill="#4A3AFF" fill-opacity="0.25"/>
<path fill-rule="evenodd" clip-rule="evenodd" d="M132 12.5586C131.118 12.9506 130.168 13.2146 129.172 13.3338C130.189 12.7242 130.97 11.7595 131.337 10.61C130.387 11.1747 129.331 11.5835 128.211 11.8051C127.312 10.8484 126.032 10.25 124.616 10.25C121.897 10.25 119.693 12.4547 119.693 15.1737C119.693 15.5592 119.737 15.9352 119.821 16.296C115.728 16.0912 112.101 14.1305 109.672 11.1515C109.248 11.8787 109.006 12.7242 109.006 13.6266C109.006 15.3345 109.873 16.8416 111.196 17.7247C110.388 17.6991 109.629 17.4775 108.965 17.1087V17.1703C108.965 19.5566 110.663 21.546 112.914 21.9996C112.501 22.1116 112.066 22.1724 111.617 22.1724C111.3 22.1724 110.991 22.1412 110.69 22.0836C111.317 24.0395 113.136 25.4634 115.29 25.5034C113.605 26.8233 111.482 27.6112 109.175 27.6112C108.777 27.6112 108.385 27.588 108 27.5416C110.179 28.9384 112.767 29.7543 115.547 29.7543C124.604 29.7543 129.556 22.2516 129.556 15.7456C129.556 15.532 129.552 15.3193 129.542 15.1089C130.505 14.4129 131.34 13.5458 132 12.5586Z" fill="white"/>
<rect x="150" width="40" height="40" rx="6" fill="#4A3AFF" fill-opacity="0.25"/>
<path fill-rule="evenodd" clip-rule="evenodd" d="M163.775 11.8737C163.775 13.1188 162.827 14.1264 161.344 14.1264C159.919 14.1264 158.971 13.1188 159.001 11.8737C158.971 10.5681 159.919 9.58984 161.373 9.58984C162.827 9.58984 163.746 10.5681 163.775 11.8737ZM159.12 30.4089V15.9061H163.627V30.408H159.12V30.4089Z" fill="white"/>
<path fill-rule="evenodd" clip-rule="evenodd" d="M167.24 20.534C167.24 18.725 167.181 17.1829 167.121 15.9075H171.036L171.244 17.8943H171.333C171.926 16.9747 173.409 15.582 175.811 15.582C178.776 15.582 181.001 17.5395 181.001 21.8084V30.4103H176.493V22.3732C176.493 20.5037 175.841 19.2293 174.21 19.2293C172.964 19.2293 172.223 20.0893 171.927 20.919C171.808 21.2161 171.749 21.6305 171.749 22.0468V30.4103H167.242V20.534H167.24Z" fill="white"/>
</svg>
